<svg width="148" height="43" viewBox="0 0 148 43" fill="none" xmlns="http://www.w3.org/2000/svg">
<path d="M29.888 32H19.936C18.848 32 18.0053 31.776 17.408 31.328C16.832 30.8587 16.544 30.208 16.544 29.376C16.544 28.544 16.896 27.6693 17.6 26.752L25.216 17.312H17.6V13.728H30.208V16.896L21.12 28.416H29.888V32ZM47.2812 32H44.1773L43.2173 29.824L38.0973 32.192C36.6679 32.192 35.4199 31.6693 34.3533 30.624C33.3079 29.5573 32.7853 28.0107 32.7853 25.984V13.728H36.9453V25.088C36.9453 27.1147 37.7559 28.128 39.3773 28.128L43.1213 26.112V13.728H47.2812V32ZM55.961 32L51.801 32.032V7.936H55.961V32ZM68.1738 17.6H64.7818V32H60.6218V17.6H58.8938V14.432H60.6218V12.672C60.6218 11.3707 61.0378 10.2507 61.8698 9.312C62.7018 8.37333 63.9071 7.904 65.4858 7.904H68.1738V11.424H66.2218C65.2618 11.424 64.7818 11.9253 64.7818 12.928V14.432H68.1738V17.6ZM73.4793 6.752C74.4819 6.752 75.1326 6.912 75.4313 7.232C75.7299 7.53067 75.8793 8.18133 75.8793 9.184C75.8793 10.1653 75.7193 10.816 75.3993 11.136C75.1006 11.4347 74.4499 11.584 73.4473 11.584C72.4659 11.584 71.8153 11.424 71.4953 11.104C71.1966 10.784 71.0473 10.1333 71.0473 9.152C71.0473 8.17067 71.1966 7.53067 71.4953 7.232C71.8153 6.912 72.4766 6.752 73.4793 6.752ZM75.5273 32H71.3673V14.4H75.5273V32ZM95.8918 32H90.8998L86.0998 25.536L84.2758 28.128V32H80.1158V7.936H84.2758V23.136L90.0998 14.464H94.8038L88.8198 22.656L95.8918 32ZM110.631 32H107.847L106.567 29.792L102.119 32.192C99.6441 32.192 97.9801 31.296 97.1268 29.504C96.7001 28.6293 96.4014 27.6907 96.2308 26.688C96.0814 25.664 96.0068 24.608 96.0068 23.52C96.0068 22.4107 96.0174 21.6 96.0388 21.088C96.0601 20.5547 96.1134 19.9467 96.1988 19.264C96.2841 18.56 96.4014 17.9733 96.5508 17.504C96.7214 17.0347 96.9561 16.5547 97.2548 16.064C97.5534 15.552 97.9161 15.1467 98.3428 14.848C99.3028 14.1867 100.551 13.856 102.087 13.856H106.471L110.631 13.6V32ZM106.471 26.176V17.6H103.303C102.129 17.6 101.308 18.048 100.839 18.944C100.391 19.84 100.167 21.184 100.167 22.976C100.167 24.7467 100.38 25.9947 100.807 26.72C101.255 27.4453 102.087 27.808 103.303 27.808L106.471 26.176ZM124.845 13.792L123.693 17.888C123.373 17.76 123.01 17.696 122.605 17.696C121.538 17.696 120.226 18.1547 118.669 19.072V32H114.509V13.728H117.613L118.573 15.328L122.989 13.504C123.202 13.4827 123.49 13.472 123.853 13.472C124.215 13.472 124.546 13.5787 124.845 13.792Z" fill="black"/>
</svg>
